<?xml version="1.0" standalone="no"?>
<!DOCTYPE svg PUBLIC "-//W3C//DTD SVG 20010904//EN"
 "http://www.w3.org/TR/2001/REC-SVG-20010904/DTD/svg10.dtd">
<svg version="1.0" xmlns="http://www.w3.org/2000/svg"
 width="250.000000pt" height="58.000000pt" viewBox="0 0 300.000000 58.000000"
 preserveAspectRatio="xMidYMid meet">
<metadata>
Created by potrace 1.10, written by Peter Selinger 2001-2011
</metadata>
<g transform="translate(0.000000,58.000000) scale(0.100000,-0.100000)"
fill="#000000" stroke="none">
<path d="M214 486 c-9 -14 -14 -39 -12 -58 3 -33 3 -33 -45 -36 -64 -4 -81
-29 -75 -112 2 -33 10 -66 16 -72 7 -7 33 -13 58 -14 l46 -2 2 -46 c1 -25 7
-51 14 -58 6 -6 39 -14 72 -16 83 -6 108 11 112 75 3 48 3 48 36 45 19 -2 44
3 58 12 22 15 24 23 24 89 0 43 -5 78 -12 85 -7 7 -34 12 -60 12 l-48 0 0 48
c0 26 -5 53 -12 60 -7 7 -42 12 -85 12 -66 0 -74 -2 -89 -24z m154 -8 c8 -8
12 -50 12 -125 0 -69 4 -113 10 -113 6 0 10 28 10 65 l0 65 38 0 c50 0 62 -14
62 -71 0 -81 3 -79 -132 -79 -91 0 -119 -3 -115 -12 2 -8 25 -13 63 -14 53 -1
59 -3 62 -24 2 -12 1 -33 -2 -46 -6 -24 -10 -25 -74 -22 l-67 3 -3 118 c-2 98
-5 117 -18 117 -13 0 -15 -11 -12 -60 l3 -61 -45 3 -45 3 -3 64 c-2 45 1 67
10 72 7 5 61 9 121 9 64 0 107 4 107 10 0 6 -27 10 -60 10 l-60 0 0 44 c0 26
5 46 13 49 25 10 113 7 125 -5z"/>
<path d="M670 290 c0 -94 2 -110 16 -110 13 0 15 12 12 75 -2 41 0 75 3 75 3
0 20 -34 38 -75 18 -41 38 -75 43 -75 5 0 27 37 48 83 l39 82 0 -83 c1 -55 5
-82 12 -80 16 5 18 218 1 218 -6 0 -31 -38 -54 -85 -23 -47 -45 -85 -48 -85
-3 1 -23 39 -44 85 -54 117 -66 113 -66 -25z"/>
<path d="M930 290 l0 -110 65 0 c51 0 65 3 65 15 0 11 -12 15 -50 15 -43 0
-50 3 -50 19 0 11 -3 26 -6 35 -5 13 2 16 35 16 31 0 41 4 41 16 0 12 -9 15
-37 12 -36 -3 -36 -2 -37 32 l0 35 49 0 c30 0 50 5 52 13 4 9 -13 12 -61 12
l-66 0 0 -110z"/>
<path d="M1090 289 l0 -112 53 7 c63 9 90 25 107 65 31 76 -23 151 -111 151
l-49 0 0 -111z m81 81 c58 0 82 -101 33 -139 -15 -12 -41 -21 -60 -21 l-34 0
0 78 c0 82 5 96 28 87 7 -3 22 -5 33 -5z"/>
<path d="M1290 289 c0 -84 3 -110 13 -107 8 3 13 37 15 111 2 91 0 107 -13
107 -13 0 -15 -18 -15 -111z"/>
<path d="M1364 375 c-23 -35 -10 -59 44 -87 37 -19 47 -30 47 -49 0 -20 -6
-25 -31 -27 -19 -2 -36 3 -44 12 -16 20 -30 20 -30 2 0 -21 40 -46 72 -46 37
0 70 34 66 68 -2 21 -15 33 -55 55 -36 19 -53 35 -53 47 0 27 45 38 69 16 22
-20 31 -20 31 -1 0 19 -31 35 -69 35 -21 0 -35 -7 -47 -25z"/>
<path d="M1557 380 c-54 -43 -52 -126 3 -175 39 -35 159 -20 123 16 -8 8 -13
8 -17 0 -12 -19 -74 -13 -96 9 -42 42 -36 103 15 136 22 14 32 15 63 6 41 -13
50 -9 32 13 -19 23 -92 19 -123 -5z"/>
<path d="M1720 290 c0 -91 3 -110 15 -110 11 0 15 12 15 50 l0 50 55 0 55 0 0
-50 c0 -27 5 -50 10 -50 6 0 10 43 10 110 0 67 -4 110 -10 110 -5 0 -10 -22
-10 -50 l0 -50 -55 0 -55 0 0 50 c0 38 -4 50 -15 50 -12 0 -15 -19 -15 -110z"/>
<path d="M1920 290 l0 -111 62 3 c38 2 63 8 66 16 3 9 -12 12 -52 12 l-56 0 0
35 c0 34 1 35 40 35 30 0 40 4 40 16 0 12 -9 15 -37 12 -37 -3 -38 -2 -38 32
l0 35 49 0 c30 0 51 5 53 13 4 9 -13 12 -61 12 l-66 0 0 -110z"/>
<path d="M2080 290 l0 -113 53 7 c63 9 90 25 107 65 31 75 -16 142 -105 149
l-55 4 0 -112z m81 80 c31 0 59 -36 59 -75 0 -49 -36 -85 -85 -85 l-35 0 0 78
c0 82 5 96 28 87 7 -3 22 -5 33 -5z"/>
<path d="M2280 315 c0 -78 2 -88 25 -110 30 -31 66 -32 99 -2 22 20 25 31 28
110 2 64 0 87 -9 87 -9 0 -13 -22 -13 -76 0 -90 -10 -114 -48 -114 -44 0 -52
16 -52 107 0 67 -3 83 -15 83 -12 0 -15 -16 -15 -85z"/>
<path d="M2470 290 l0 -110 60 0 c47 0 60 3 60 15 0 11 -12 15 -45 15 l-45 0
0 95 c0 78 -3 95 -15 95 -12 0 -15 -19 -15 -110z"/>
<path d="M2620 290 l0 -110 65 0 c51 0 65 3 65 15 0 11 -12 15 -50 15 l-50 0
0 35 c0 34 1 35 41 35 28 0 39 4 36 13 -2 7 -19 12 -41 11 -35 -1 -36 0 -36
36 l0 37 50 -5 c41 -4 50 -2 50 12 0 13 -12 16 -65 16 l-65 0 0 -110z"/>
<path d="M2780 289 c0 -84 3 -110 13 -107 6 3 13 21 15 41 5 53 39 51 77 -3
15 -22 34 -40 42 -40 15 0 8 16 -26 59 -18 24 -18 25 0 40 32 28 34 67 5 95
-20 21 -35 26 -76 26 l-50 0 0 -111z m108 68 c6 -5 12 -17 12 -27 0 -23 -18
-37 -57 -42 l-33 -5 0 48 0 49 33 -7 c17 -3 38 -10 45 -16z"/>
</g>
</svg>
